<?xml version="1.0" encoding="UTF-8"?>
<svg version="1.1" xmlns="http://www.w3.org/2000/svg" width="148" height="148">
<path d="M0 0 C48.84 0 97.68 0 148 0 C148 48.84 148 97.68 148 148 C99.16 148 50.32 148 0 148 C0 99.16 0 50.32 0 0 Z " fill="#000000" transform="translate(0,0)"/>
<path d="M0 0 C48.84 0 97.68 0 148 0 C148 38.28 148 76.56 148 116 C137.07363879 111.62945552 130.66272078 104.07891228 125.375 93.859375 C123.46807445 89.27181482 123.42423629 84.72626068 123.4375 79.8125 C123.43991699 78.88356934 123.44233398 77.95463867 123.44482422 76.99755859 C123.73713717 66.04824142 128.16505537 57.58152324 136 50 C140.51282051 46 140.51282051 46 143 46 C136.5167314 37.54169593 128.333497 31.83269019 118 29 C114.86126168 28.60371691 111.78533566 28.5705444 108.625 28.625 C107.78936523 28.63297607 106.95373047 28.64095215 106.09277344 28.64916992 C100.000121 28.78979698 94.63522627 29.57234892 89 32 C88.34902344 32.27457031 87.69804688 32.54914062 87.02734375 32.83203125 C85.35141777 33.55435179 83.67569769 34.27715002 82 35 C72.45350257 37.62528679 65.89298465 34.61383707 57 31 C47.77480843 27.60124521 38.63883663 28.03074685 29.59765625 31.73828125 C25.4047425 33.77483935 21.67126635 36.13138694 18 39 C17.38382813 39.47824219 16.76765625 39.95648438 16.1328125 40.44921875 C5.76128047 49.59921479 2.78289637 62.92542663 1 76 C0.67 76 0.34 76 0 76 C0 50.92 0 25.84 0 0 Z " fill="#FCFCFC" transform="translate(0,0)"/>
<path d="M0 0 C1.11544189 0.02618408 2.23088379 0.05236816 3.38012695 0.0793457 C5.19287109 0.10351562 5.19287109 0.10351562 7.04223633 0.12817383 C8.30487305 0.17006836 9.56750977 0.21196289 10.8684082 0.25512695 C12.77976562 0.28896484 12.77976562 0.28896484 14.72973633 0.32348633 C17.8812978 0.38250433 21.03052099 0.4647972 24.1809082 0.56762695 C19.97321358 11.3461503 13.49271661 18.77760946 3.07543945 23.8059082 C-1.28989144 25.56104124 -5.11576541 25.65807554 -9.8190918 25.56762695 C-10.33666434 17.87592392 -9.62120205 12.30715349 -5.8190918 5.56762695 C-5.23224609 4.28118286 -5.23224609 4.28118286 -4.63354492 2.96875 C-2.8190918 0.56762695 -2.8190918 0.56762695 0 0 Z " fill="#030303" transform="translate(83.819091796875,-0.567626953125)"/>
<path d="M0 0 C0.33 0 0.66 0 1 0 C1.27263672 1.75763672 1.27263672 1.75763672 1.55078125 3.55078125 C4.54669575 22.49595062 9.84202525 37.72154479 20.5546875 53.765625 C22 56 22 56 24 60 C16.08 60 8.16 60 0 60 C0 40.2 0 20.4 0 0 Z " fill="#F8F8F8" transform="translate(0,88)"/>
<path d="M0 0 C0.33 0 0.66 0 1 0 C1 10.23 1 20.46 1 31 C-4.61 31 -10.22 31 -16 31 C-12 24 -12 24 -10 20.60546875 C-6.07706911 13.90124116 -2.57813403 7.36125112 0 0 Z " fill="#F8F8F8" transform="translate(147,117)"/>
</svg>
