<svg version="1.1" id="Layer_1" xmlns="http://www.w3.org/2000/svg" xmlns:xlink="http://www.w3.org/1999/xlink" x="0px" y="0px"
	 width="100%" viewBox="0 0 225 225" enable-background="new 0 0 225 225" xml:space="preserve">
<path fill="#FEFEFE" opacity="1.000000" stroke="none" 
	d="
M138.000000,226.000000 
	C92.000000,226.000000 46.500004,226.000000 1.000006,226.000000 
	C1.000004,151.000000 1.000004,76.000015 1.000002,1.000016 
	C75.999992,1.000011 150.999985,1.000011 225.999969,1.000005 
	C225.999985,75.999985 225.999985,150.999969 226.000000,225.999969 
	C196.833328,226.000000 167.666672,226.000000 138.000000,226.000000 
M114.399170,95.077141 
	C114.238838,95.393822 114.078506,95.710503 113.732475,96.946396 
	C113.796051,108.954895 113.859619,120.963394 113.923637,133.636444 
	C114.254135,133.895630 114.584633,134.154831 115.687614,134.707092 
	C133.335632,134.707092 150.983643,134.707092 168.922272,134.707092 
	C166.295578,148.461807 158.795609,157.999847 148.025818,165.983826 
	C133.006256,175.007736 116.932732,178.256973 99.808418,173.968582 
	C77.727226,168.438858 63.587368,154.025574 55.364895,132.439453 
	C51.289333,119.647316 51.576557,106.860382 55.835926,93.542435 
	C56.248432,92.455727 56.634151,91.357964 57.077312,90.283905 
	C73.375755,50.782139 120.997925,39.575493 150.758682,64.839882 
	C151.471085,65.444641 152.379837,65.818108 152.288925,65.764549 
	C162.257858,55.797096 171.842651,46.213722 181.541534,36.516293 
	C181.219391,36.215740 180.535324,35.504105 179.778030,34.881504 
	C147.485367,8.332082 111.638771,3.504311 73.288956,18.790918 
	C49.896900,28.115219 32.617142,44.790123 21.112688,68.170113 
	C6.838371,98.676987 6.552259,129.104370 21.785971,160.127518 
	C25.201216,165.613693 28.101006,171.513382 32.116104,176.518341 
	C56.546268,206.971405 88.576347,219.775421 127.159203,215.810501 
	C147.635574,213.706284 166.070297,206.166229 181.891815,191.615631 
	C207.453232,166.993073 214.554886,136.195831 211.723297,102.124756 
	C211.528488,99.780731 210.559784,97.501030 209.502686,94.992142 
	C209.502686,94.992142 209.017792,95.066666 208.090042,94.905151 
	C177.053711,94.959961 146.017380,95.014771 114.399170,95.077141 
z"/>
<path fill="#EA4335" opacity="1.000000" stroke="none" 
	d="
M21.591623,67.644249 
	C32.617142,44.790123 49.896900,28.115219 73.288956,18.790918 
	C111.638771,3.504311 147.485367,8.332082 179.778030,34.881504 
	C180.535324,35.504105 181.219391,36.215740 181.541534,36.516293 
	C171.842651,46.213722 162.257858,55.797096 152.288925,65.764549 
	C152.379837,65.818108 151.471085,65.444641 150.758682,64.839882 
	C120.997925,39.575493 73.375755,50.782139 57.077312,90.283905 
	C56.634151,91.357964 56.248432,92.455727 55.410736,93.521133 
	C43.854237,84.881302 32.722931,76.262779 21.591623,67.644249 
z"/>
<path fill="#34A853" opacity="1.000000" stroke="none" 
	d="
M55.541328,133.139999 
	C63.587368,154.025574 77.727226,168.438858 99.808418,173.968582 
	C116.932732,178.256973 133.006256,175.007736 148.603180,166.172287 
	C159.902237,174.867569 170.623932,183.374374 181.345642,191.881180 
	C166.070297,206.166229 147.635574,213.706284 127.159203,215.810501 
	C88.576347,219.775421 56.546268,206.971405 32.116104,176.518341 
	C28.101006,171.513382 25.201216,165.613693 22.020397,159.568802 
	C33.350327,150.386719 44.445827,141.763351 55.541328,133.139999 
z"/>
<path fill="#4385F4" opacity="1.000000" stroke="none" 
	d="
M181.618729,191.748413 
	C170.623932,183.374374 159.902237,174.867569 148.940598,166.096466 
	C158.795609,157.999847 166.295578,148.461807 168.922272,134.707092 
	C150.983643,134.707092 133.335632,134.707092 115.233788,134.259705 
	C114.494370,133.532181 114.208778,133.252045 113.923195,132.971893 
	C113.859619,120.963394 113.796051,108.954895 114.051941,96.386871 
	C114.666870,95.648972 114.870087,95.396378 114.981056,95.069580 
	C146.017380,95.014771 177.053711,94.959961 208.626892,95.140457 
	C209.426163,95.314301 209.688568,95.252853 209.950989,95.191406 
	C210.559784,97.501030 211.528488,99.780731 211.723297,102.124756 
	C214.554886,136.195831 207.453232,166.993073 181.618729,191.748413 
z"/>
<path fill="#FBBC06" opacity="1.000000" stroke="none" 
	d="
M55.453110,132.789734 
	C44.445827,141.763351 33.350327,150.386719 21.943073,159.227264 
	C6.552259,129.104370 6.838371,98.676987 21.352156,67.907181 
	C32.722931,76.262779 43.854237,84.881302 55.198109,93.788757 
	C51.576557,106.860382 51.289333,119.647316 55.453110,132.789734 
z"/>
<path fill="#307DF3" opacity="1.000000" stroke="none" 
	d="
M114.690109,95.073357 
	C114.870087,95.396378 114.666870,95.648972 114.144791,95.927269 
	C114.078506,95.710503 114.238838,95.393822 114.690109,95.073357 
z"/>
<path fill="#307DF3" opacity="1.000000" stroke="none" 
	d="
M209.726837,95.091766 
	C209.688568,95.252853 209.426163,95.314301 209.090759,95.221207 
	C209.017792,95.066666 209.502686,94.992142 209.726837,95.091766 
z"/>
<path fill="#307DF3" opacity="1.000000" stroke="none" 
	d="
M113.923416,133.304169 
	C114.208778,133.252045 114.494370,133.532181 114.847549,134.113159 
	C114.584633,134.154831 114.254135,133.895630 113.923416,133.304169 
z"/>
</svg>